<svg width="515" height="311" viewBox="0 0 515 311" xmlns="http://www.w3.org/2000/svg" xmlns:xlink="http://www.w3.org/1999/xlink"><defs><path id="a" d="M514.69 260.94H0V.859h514.69z"/></defs><g fill="none" fill-rule="evenodd"><path d="M137.27 74.144c-2.731-2.937-12.024-1.109-16.533-.373-11.226 1.81-16.49 10.621-14.675 21.935 1.834 11.314 9.643 18.032 20.855 16.207 4.817-.765 12.577-2.334 15.578-5.52l11.68 11.801c-5.8 8.578-15.519 12.85-23.925 14.208-22.284 3.589-42.554-9.081-46.467-33.128-3.901-24.029 11.351-42.418 33.613-45.997 8.443-1.348 18.984-.344 27.197 5.966l-7.323 14.901" fill="#FFFCEB"/><g fill="#FFFCEB"><path d="M206.42 59.983l-19.618 3.152 6.632 40.832 24.818-4.002 2.669 16.502-46.947 7.568-9.307-57.341-14.17 2.274-3.03-18.599 14.182-2.291-3.609-22.339 22.139-3.558 3.596 22.352 19.634-3.186 3.011 18.636M224.099.31c7.159-1.144 13.905 3.967 15.114 11.404 1.197 7.455-3.583 14.42-10.739 15.588-7.002 1.122-13.911-3.986-15.117-11.411-1.199-7.458 3.73-14.467 10.742-15.581zm-2.101 57.077l-5.422.873-3.028-18.722 27.529-4.429 12.33 76.033-22.1 3.564-9.309-57.319z"/></g><path d="M297.367 84.492c11.063-1.778 14.796-10.346 12.951-21.659-1.81-11.314-8.065-18.284-19.134-16.497-11.24 1.802-14.926 10.358-13.116 21.677 1.841 11.335 8.084 18.289 19.299 16.479zm-9.492-58.64c22.118-3.556 40.674 9.385 44.556 33.402 3.918 24.044-9.6 42.167-31.729 45.727-22.279 3.579-40.996-9.342-44.895-33.369-3.902-24.037 9.778-42.177 32.068-45.76zM334.297 20.288l21.329-3.414 1.656 10.213.32-.037c2-6.369 8.326-13.754 19.081-15.48 22.413-3.625 29.147 11.231 32.42 31.41l6.739 41.553-22.278 3.579-5.966-36.909c-1.432-8.695-3.403-19.844-14.751-18.011-11.549 1.86-11.724 11.606-10.126 21.367l6.079 37.535-22.258 3.604-12.245-75.41M202.71 133.863l23.985-3.857 38.88 45.615.33-.062 9.476-54.047 22.258-3.579-16.117 79.946-23.508 3.783-55.304-67.799M348.981 139.572c-1.114-7.764-6.996-13.504-15.106-12.19-9.647 1.554-11.931 9.068-11.23 16.428l26.336-4.238zm22.223 31.459c-6.117 9.729-13.499 16.487-25.018 18.328-22.277 3.606-39.127-9.605-43.019-33.654-3.909-24.042 7.904-41.851 30.192-45.436 20.696-3.337 33.508 10.513 37.416 34.57l1.165 7.294-46.712 7.525c3.146 8.549 8.45 13.59 16.999 12.219 7.161-1.16 15.467-4.096 19.453-9.184l9.524 8.338z" fill="#FFFCEB"/><g transform="translate(0 50)"><mask id="b" fill="#fff"><use xlink:href="#a"/></mask><path d="M371.533 56.049l22.268-3.599 1.938 12.084.331-.041c3.175-9.897 4.974-14.649 14.797-16.246 2.49-.387 12.627 2.922 17.901 10.839l-6.662 15.239c-2.319-3.463-6.846-5.756-10.11-5.232-13.57 2.193-13.529 12.217-11.075 27.264l5.104 31.483-22.268 3.572-12.224-75.363M479.341 96.955c11.06-1.807 14.163-10.259 12.343-21.582-1.866-11.304-7.481-18.382-18.54-16.577-11.204 1.784-16.488 10.608-14.658 21.917 1.831 11.333 9.636 18.024 20.855 16.242zM425.195 4.43L447.297.859l8.096 49.96.319-.053c3.8-8.082 11.952-12.107 21.123-13.583 20.417-3.289 33.658 14.324 37.045 35.26 3.712 22.812-5.346 40.809-26.707 44.249-9.976 1.601-19.696-3.348-23.867-8.262l-.308.047 1.618 9.929-20.407 3.282L425.195 4.43zM56.032 53.864c-1.846-11.329-9.636-18.014-20.856-16.222-11.062 1.781-14.181 10.243-12.343 21.562 1.836 11.324 7.471 18.382 18.523 16.607 11.209-1.804 16.517-10.618 14.676-21.947zm26.513 34.43l-20.396 3.283-1.614-9.948-.325.048c-2.392 5.967-10.087 13.728-20.043 15.32C18.819 100.444 4.52 86.178.818 63.391c-3.39-20.938 3.599-41.806 24.018-45.08 9.175-1.489 18.183-.233 24.349 6.269l.319-.064-1.961-12.076 22.11-3.564 12.892 79.418zM156.62 219.242c-25.037 4.168-48.698-12.672-52.879-37.58-4.182-24.947 12.722-48.494 37.728-52.678 25.047-4.154 48.718 12.672 52.904 37.61 4.161 24.896-12.746 48.494-37.753 52.648zm25.088-132.011L89.81 102.505l-32.652 86.911L116.391 261l91.913-15.264 32.634-86.912-59.23-71.593z" fill="#FFFCEB" mask="url(#b)"/></g><path d="M180.328 201.74c-8.886-15.906-27.104-25.365-46.16-22.197-13.82 2.295-25.057 10.69-31.44 21.971 1.936-1.365 3.939-2.655 6.094-3.799 10.921-5.777 24.016-8.549 36.215-5.797 12.765 2.904 21.786 12.887 25.034 25.313 1.722 6.572 1.735 14.349-2.279 20.148-3.645 5.271-10.1 8.533-16.372 9.395-7.054.96-13.459-1.479-16.153-8.405-2.416-6.25.314-14.099 7.455-15.445-5.958.072-10.379 5.762-10.826 11.342-.442 5.582 2.182 11.584 6.608 15.019 9.387 7.27 24.871 3.989 33.491-2.799 13.52-10.638 14.242-29.359 8.333-44.746" fill="#FFFCEB"/></g></svg>